<?xml version="1.0" encoding="UTF-8"?>
<!DOCTYPE svg PUBLIC "-//W3C//DTD SVG 1.1//EN" "http://www.w3.org/Graphics/SVG/1.1/DTD/svg11.dtd">
<svg version="1.1" xmlns="http://www.w3.org/2000/svg" xmlns:xlink="http://www.w3.org/1999/xlink" x="0" y="0" width="584" height="472" viewBox="0, 0, 584, 472">
  <g id="Layer_1">
    <path d="M384.202,305.652 L356.703,328.028 L368.699,345.232 C377.712,343.398 386.645,341.086 395.448,338.099 L384.202,305.652 z M323.332,405.836 L337.066,382.442 L323.554,357.619 C319.818,357.92 316.077,358.15 312.335,358.31 L299.804,381.239 C299.89,381.326 299.986,381.398 300.064,381.494 L319.581,404.767 C320.824,405.141 322.077,405.498 323.332,405.836 M395.902,339.41 L395.638,338.646 C387.888,342.859 379.65,346.166 371.18,348.79 L376.418,356.303 L395.902,339.41 z M391.128,302.367 L401.021,330.908 C400.685,320.04 398.483,309.643 394.718,300.013 L391.165,302.345 L391.128,302.367 M296.538,251.402 L267.076,275.34 L292.11,300.814 C294.828,298.859 297.492,296.839 300.144,294.753 C303.167,292.305 306.266,289.94 309.432,287.662 C313.354,284.876 317.397,282.24 321.542,279.772 C321.273,279.587 321.017,279.379 320.792,279.122 L296.538,251.402 z M256.161,278.482 L256.781,277.627 L256.58,277.454 C256.434,277.793 256.305,278.14 256.161,278.482 M347.486,383.182 L364.543,407.125 L375.842,397.497 C378.979,394.158 381.871,390.589 384.492,386.815 L374.756,365.818 L347.486,383.182 z M327.456,276.432 C327.681,276.311 327.903,276.187 328.128,276.068 L354.803,253.367 C341.461,245.567 326.025,240.994 309.551,240.712 L302.442,246.577 L326.528,274.103 C327.118,274.779 327.416,275.602 327.456,276.432 M341.78,412.128 C337.381,412.51 332.935,412.471 328.527,412.038 L327.455,413.868 L335.912,422.677 C344.012,420.123 351.627,416.474 358.609,411.928 L356.412,408.847 C351.755,410.591 346.8,411.631 341.78,412.128 M351.317,266.752 C355.136,265.779 359.002,264.967 362.94,264.651 C363.475,264.597 364.011,264.578 364.548,264.545 L361.155,257.969 L350.59,266.961 C350.833,266.893 351.074,266.819 351.317,266.752 M247.955,305.785 C246.966,310.85 246.24,315.965 245.723,321.101 C247.346,321.034 248.971,320.882 250.585,320.626 C257.912,319.448 264.969,316.676 271.71,313.375 C276.547,310.97 281.2,308.185 285.734,305.199 L262.985,282.052 L248.853,301.547 C248.544,302.957 248.262,304.376 247.955,305.785 M298.286,308.019 L320.009,338.99 L345.871,324.906 L325.887,286.271 L298.286,308.019 z M319.524,426.23 C322.21,425.893 324.867,425.457 327.478,424.898 L323.271,420.516 L319.524,426.23 z M352.691,270.892 C349.2,272.323 345.755,273.856 342.4,275.584 C340.729,276.424 339.069,277.284 337.421,278.17 L332.481,282.372 L332.459,282.388 L352.678,321.477 L381.729,297.838 L365.621,266.622 C364.876,266.805 364.134,266.991 363.397,267.187 C359.75,268.211 356.18,269.462 352.691,270.892 M260.56,270.816 L288.248,248.319 L283.042,244.079 C280.879,244.679 278.745,245.345 276.648,246.096 C269.926,253.416 264.408,261.602 259.965,270.3 L260.56,270.816 z M356.021,408.296 L342.152,388.831 L331.148,407.577 C339.269,409.019 347.594,409.366 356.021,408.296 M294.256,243.437 L294.584,243.17 C294.917,242.9 295.285,242.711 295.667,242.569 C295.878,242.223 296.138,241.899 296.468,241.626 L296.788,241.362 C295.353,241.535 293.931,241.736 292.52,241.971 L293.995,243.174 C294.093,243.254 294.171,243.348 294.256,243.437 M391.62,292.932 C387.587,284.717 382.379,277.184 376.218,270.541 L388.746,294.817 L391.62,292.932 z M240.003,313.756 L237.747,316.863 L239.367,318.153 C239.553,316.684 239.771,315.22 240.003,313.756 M238.504,327.209 L233.5,323.223 L219.565,345.869 C225.895,347.279 232.256,348.251 238.642,349.01 C238.108,342.449 238.024,335.852 238.353,329.289 C238.389,328.594 238.459,327.902 238.504,327.209 M260.106,385.926 C257.559,384.727 254.965,383.699 252.373,382.688 C251.901,382.501 251.425,382.343 250.951,382.179 C252.729,387.929 254.97,393.532 257.894,398.779 L268.596,410.749 L278.938,395.166 C272.62,392.036 266.383,388.845 260.106,385.926 M247.821,387.512 C246.848,385.283 245.978,383.012 245.186,380.721 L243.418,382.586 L247.821,387.512 z M228.218,381.925 L228.229,381.92 L228.228,381.918 L228.218,381.925 M220.018,364.534 C222.159,370.645 224.922,376.461 228.228,381.918 C229.193,381.093 230.262,380.364 231.39,379.722 L220.018,364.534 z M228.229,381.92 C228.828,382.913 229.44,383.896 230.076,384.861 L231.796,381.987 C231.984,381.672 232.221,381.409 232.476,381.17 L231.954,380.473 C230.694,380.851 229.454,381.333 228.229,381.92 M303.512,358.561 C296.362,358.653 289.209,358.494 282.073,358.074 L294.342,375.34 L303.512,358.561 z M381.414,362.059 L389.313,379.096 C394.348,370.085 397.917,360.159 399.727,349.632 L398.323,347.398 L381.414,362.059 z M225.486,318.585 L217.903,309.963 C215.881,317.581 214.792,325.576 214.792,333.823 C214.792,335.512 214.842,337.188 214.932,338.856 L226.809,319.556 C226.319,319.339 225.863,319.014 225.486,318.585 M307.227,351.765 L312.672,341.799 L293.304,314.186 L273.611,346.163 L277.588,351.763 C287.473,352.052 297.357,352.062 307.227,351.765 M305.455,399.78 L294.226,386.391 L294.128,386.247 L294.011,386.233 L289.579,392.914 C290.937,393.532 292.294,394.148 293.656,394.754 C297.571,396.505 301.5,398.202 305.455,399.78 M249.646,377.651 C253.917,378.392 258.048,379.673 262.06,381.086 C269.127,383.607 275.89,386.631 282.568,389.698 L288.666,380.507 L272.183,357.313 C270.708,357.174 269.235,357.024 267.76,356.863 L249.325,376.344 C249.407,376.668 249.47,376.997 249.554,377.318 C249.583,377.428 249.618,377.541 249.646,377.651 M290.908,400.877 C289.207,400.115 287.539,399.31 285.861,398.514 L274.95,414.956 L283.566,423.716 C291.341,425.828 299.51,426.975 307.943,426.975 C308.62,426.975 309.284,426.938 309.953,426.923 L317.969,414.706 L313.271,409.102 C305.559,406.992 298.102,404.092 290.908,400.877 M245.223,349.742 C251.038,350.339 256.869,350.771 262.696,351.128 L265.308,348.368 C265.006,348.238 264.716,348.08 264.446,347.866 L244.964,332.353 C244.76,338.147 244.838,343.953 245.223,349.742 M251.064,324.401 C249.876,324.515 248.681,324.587 247.482,324.616 L267.913,340.883 L285.908,311.664 C281.992,313.926 277.977,316.027 273.833,317.887 C266.656,321.091 259.037,323.595 251.064,324.401 M244.276,294.874 C245.751,290.033 247.516,285.28 249.632,280.678 C250.618,278.478 251.686,276.312 252.817,274.183 L243.811,266.359 C233.607,276.064 225.584,288.037 220.59,301.481 L230.949,313.256 L244.276,294.874 z M363.425,350.992 C360.814,351.674 358.195,352.323 355.567,352.904 C347.718,354.651 339.779,355.923 331.797,356.824 L342.837,377.108 L369.706,359.998 L363.425,350.992 z M354.609,347.752 C356.574,347.45 358.533,347.126 360.492,346.787 L349.794,331.446 L325.259,344.808 L328.45,350.671 C337.202,350.001 345.93,349.058 354.609,347.752 M234.939,391.577 C242.366,400.947 251.553,408.856 262.001,414.806 L237.462,387.359 L234.939,391.577 z M262.473,259.233 C265.97,254.82 269.846,250.711 274.085,247.069 C265.173,250.559 256.928,255.373 249.591,261.287 L256.708,267.469 C258.496,264.628 260.417,261.874 262.473,259.233 M242.618,372.345 C240.842,365.688 239.63,358.898 238.922,352.052 C232.322,350.466 225.761,348.614 219.549,345.896 L217.759,348.802 L238.582,376.611 L242.618,372.345 z M317.622,348.637 L316.089,351.44 C317.419,351.375 318.748,351.307 320.077,351.231 L318.538,348.402 C318.235,348.521 317.932,348.6 317.622,348.637 M258.369,355.7 L247.387,367.305 C246.551,362.731 245.91,358.119 245.494,353.484 C249.764,354.339 254.057,355.085 258.369,355.7" fill="#E05531"/>
    <path d="M404.921,120.329 C408.922,118.897 413.082,117.836 417.292,117.457 C419.388,117.278 421.515,117.242 423.56,117.593 C425.585,117.946 427.638,118.647 428.934,120.658 C428.931,119.464 428.355,118.246 427.522,117.283 C426.687,116.315 425.622,115.545 424.507,114.952 C422.256,113.764 419.789,113.225 417.348,112.963 C412.438,112.497 407.534,113.314 402.978,114.955 C398.409,116.588 394.197,119.167 390.646,122.414 C388.895,124.067 387.31,125.883 385.962,127.845 C384.655,129.842 383.527,131.93 382.785,134.169 C384.58,132.625 386.233,131.098 388.009,129.739 C389.78,128.384 391.558,127.114 393.391,125.953 C397.074,123.67 400.907,121.76 404.921,120.329 M434.316,85.283 C420.316,74.859 372.736,62.959 366.072,61.328 C365.822,56.924 365.644,52.381 365.564,48.403 C364.926,48.317 364.286,48.23 363.645,48.145 C331.301,43.859 292.773,41.434 251.796,41.159 C251.701,41.157 251.607,41.157 251.513,41.156 C248.996,41.14 246.473,41.128 243.938,41.128 C217.117,41.128 191.231,42.046 167.303,43.798 C166.796,43.835 166.294,43.874 165.788,43.912 C156.259,44.627 147.048,45.474 138.214,46.451 C137.659,46.513 137.101,46.574 136.548,46.635 C121.879,48.292 108.286,50.304 96.075,52.651 C50.415,61.425 40.416,71.743 40.416,74.978 C40.416,75.083 41.787,85.206 87.686,94.795 C90.729,95.431 93.969,96.064 97.417,96.694 C97.58,96.723 97.737,96.753 97.902,96.782 C118.041,100.43 141.844,103.232 167.977,105.101 C170.557,105.286 173.154,105.464 175.778,105.631 C176.083,105.649 176.39,105.665 176.693,105.686 C179.96,105.889 183.261,106.079 186.592,106.255 C206.096,107.28 226.644,107.814 247.752,107.814 C254.824,107.814 261.818,107.753 268.718,107.633 C271.131,107.59 273.527,107.539 275.919,107.482 C278.753,107.416 281.573,107.341 284.372,107.253 C314.806,106.307 343.02,104.172 367.307,100.982 C369.155,100.739 370.971,100.489 372.773,100.234 C374.466,99.994 376.138,99.748 377.79,99.499 C383.347,98.656 388.671,97.756 393.721,96.794 C411.854,93.345 424.152,89.588 432.361,86.135 C433.042,85.849 433.691,85.565 434.316,85.283 M410.957,139.794 C394.916,142.672 375.902,144.747 354.24,146.017 C353.938,144.469 353.526,142.937 352.936,141.454 C352.233,139.71 351.284,138.066 350.202,136.522 C349.129,134.96 347.827,133.585 346.464,132.286 C345.089,131.022 343.587,129.807 341.904,128.858 C338.571,126.908 334.686,125.817 330.802,125.69 C326.91,125.531 323.069,126.334 319.509,127.655 C315.943,128.996 312.61,130.85 309.583,133.2 C308.079,134.396 306.66,135.711 305.365,137.288 C304.719,138.082 304.101,138.93 303.562,139.991 C303.296,140.531 303.043,141.117 302.871,141.861 C302.712,142.595 302.583,143.575 303.009,144.768 L303.132,145.116 L303.404,145.477 C303.914,146.152 304.434,146.822 304.947,147.496 C292.166,147.566 278.767,147.433 264.775,147.086 C264.69,146.737 264.613,146.387 264.526,146.039 C263.85,143.295 262.869,140.631 261.739,137.999 C260.603,135.369 259.212,132.806 257.448,130.389 C256.947,129.699 256.387,129.026 255.8,128.37 C257.943,128.368 260.097,128.357 262.266,128.339 C319.177,127.898 395.97,122.363 451.218,99.567 L448.985,98.43 L445.586,96.7 C442.168,98.547 438.237,100.306 433.783,101.974 C431.341,102.887 428.752,103.774 426.001,104.634 C417.643,107.249 407.844,109.624 396.569,111.768 C390.598,112.904 384.268,113.962 377.622,114.936 C375.43,115.257 373.194,115.567 370.933,115.87 C368.599,116.184 366.229,116.487 363.824,116.781 C342.292,119.41 318.028,121.255 292.077,122.235 C289.288,122.339 286.479,122.436 283.652,122.522 C280.612,122.614 277.556,122.695 274.478,122.764 C271.924,122.82 269.355,122.866 266.776,122.905 C261.022,122.995 255.205,123.045 249.338,123.052 C248.411,122.545 247.428,122.097 246.363,121.762 C244.698,121.226 242.854,121.005 241.048,121.137 C238.698,121.296 236.575,122.037 234.701,122.986 C222.305,122.856 210.133,122.544 198.281,122.058 C194.985,121.921 191.714,121.773 188.471,121.61 C184.974,121.435 181.511,121.245 178.082,121.038 C175.463,120.881 172.862,120.714 170.283,120.539 C168.708,120.431 167.142,120.321 165.583,120.207 C164.29,119.962 162.991,119.806 161.698,119.717 C160.649,119.652 159.603,119.644 158.563,119.667 C152.06,119.144 145.71,118.561 139.532,117.919 C138.806,117.844 138.08,117.768 137.359,117.692 L139.446,122.509 L139.992,122.571 C140.068,122.581 141.229,122.714 143.349,122.932 C140.131,124.258 137.087,125.972 134.384,128.141 C139.112,127.288 143.597,126.436 148.096,125.939 C152.572,125.428 157.026,125.142 161.337,125.419 C165.613,125.71 169.874,126.485 173.035,128.683 C174.646,129.747 175.84,131.283 176.667,133.202 C177.53,135.129 177.761,137.427 177.888,139.828 C178.996,137.692 179.61,135.218 179.406,132.588 C179.206,130.141 178.122,127.593 176.357,125.689 C190.548,126.648 208.144,127.575 227.774,128.048 L227.737,128.093 C226.376,129.885 225.797,131.85 225.52,133.582 C224.997,137.091 225.486,140.103 226,143.009 C226.178,143.918 226.385,144.809 226.605,145.689 C217.565,145.259 208.337,144.758 198.906,144.173 C164.806,142.066 116.097,130.243 114.847,121.492 C114.488,118.984 114.325,116.778 114.263,114.839 C113.618,114.747 112.977,114.656 112.336,114.561 C110.454,114.289 108.587,114.01 106.752,113.724 C103.482,113.214 100.301,112.683 97.191,112.135 C96.522,112.016 95.847,111.9 95.186,111.78 C77.617,108.601 63.512,105.006 52.685,100.915 C42.669,97.131 35.469,92.918 30.956,88.213 C27.083,84.178 25.173,79.784 25.173,74.978 C25.173,58.678 47.425,46.479 93.199,37.683 C132.785,30.076 186.318,25.886 243.938,25.886 C256.392,25.886 268.655,26.083 280.63,26.467 C290.707,26.79 300.576,27.247 310.182,27.832 C374.667,29.062 456.665,44.832 471.947,59.678 C472.1,64.176 473.565,104.162 473.817,111.066 C473.822,111.187 473.825,111.282 473.827,111.382 C471.502,119.563 455.083,130.214 422.175,137.545 C422.193,137.266 422.222,136.989 422.239,136.708 C422.138,137.002 422.049,137.3 421.947,137.594 C418.464,138.366 414.809,139.102 410.957,139.794 M339.985,132.38 C337.115,130.926 333.943,130.24 330.756,130.318 C327.57,130.409 324.374,131.13 321.358,132.386 C318.349,133.636 315.492,135.365 313.008,137.444 C311.769,138.476 310.593,139.586 309.663,140.762 C309.201,141.341 308.792,141.944 308.539,142.466 C308.48,142.584 308.433,142.696 308.397,142.799 C309.599,144.338 310.785,145.89 311.981,147.435 C326.039,147.272 339.302,146.847 351.711,146.161 C350.827,143.346 349.465,140.724 347.614,138.495 C345.517,135.977 342.845,133.817 339.985,132.38 M250.385,131.47 C249.433,130.7 248.443,130.033 247.459,129.486 C246.468,128.934 245.49,128.545 244.53,128.326 C243.428,128.316 242.329,128.306 241.237,128.291 C239.556,128.63 237.825,129.534 236.007,130.841 C235.508,131.2 235.002,131.582 234.477,131.99 C234.36,132.082 234.178,132.218 234.114,132.275 L233.982,132.388 C233.906,132.478 233.821,132.558 233.748,132.664 C233.447,133.06 233.164,133.782 233.03,134.741 C232.761,136.665 232.971,139.166 233.422,141.622 C233.684,143.076 234.018,144.558 234.387,146.043 C243.531,146.438 252.459,146.755 261.167,146.989 C259.027,142.199 256.328,137.64 253.041,133.969 C252.185,133.051 251.346,132.233 250.385,131.47 M558.255,65.119 C551.172,66.479 513.247,73.76 495.885,77.067 L558.081,79.314 L558.255,65.119 z M511.025,93.661 C511.445,94.205 511.779,94.8 512.063,95.405 C512.888,97.215 513.206,99.194 513.211,101.145 C513.206,103.096 512.887,105.076 512.062,106.884 C511.775,107.49 511.438,108.088 511.02,108.633 C512.75,107.41 514.01,104.474 514.01,101.145 C514.01,97.819 512.754,94.889 511.025,93.661 M529.347,187.754 C529.847,188.139 530.421,188.402 531.068,188.456 C532.715,188.575 534.291,187.235 535.156,185.653 C535.882,184.373 536.25,182.92 536.391,181.447 C536.34,177.363 534.329,173.941 531.95,173.941 C529.541,173.941 527.505,177.448 527.505,181.602 C527.505,184.094 528.241,186.345 529.347,187.754 M550.186,108.751 C549.258,108.098 548.245,107.578 547.182,107.221 C546.922,107.199 546.664,107.161 546.399,107.161 C538.958,107.161 532.903,116.215 532.903,127.341 C532.903,138.468 538.958,147.52 546.399,147.52 C546.667,147.52 546.93,147.485 547.194,147.461 C548.251,147.105 549.265,146.588 550.19,145.935 C552.07,144.614 553.626,142.815 554.814,140.807 C557.201,136.768 558.223,132.024 558.283,127.341 C558.223,122.659 557.198,117.914 554.813,113.877 C553.625,111.872 552.069,110.072 550.186,108.751 M509.473,93.067 L509.245,93.047 C506.663,93.047 504.483,96.757 504.483,101.145 C504.483,105.534 506.663,109.242 509.245,109.242 L509.48,109.221 C510.44,108.684 511.272,107.773 511.826,106.764 C512.791,105.073 513.174,103.094 513.211,101.145 C513.174,99.195 512.789,97.215 511.826,95.527 C511.267,94.514 510.434,93.604 509.473,93.067 M550.543,146.413 C550.405,146.523 550.258,146.623 550.114,146.726 C555.751,144.305 559.892,136.541 559.892,127.341 C559.892,118.151 555.757,110.392 550.129,107.964 C550.268,108.064 550.41,108.163 550.546,108.268 C552.449,109.743 553.909,111.677 555.046,113.745 C557.301,117.914 558.254,122.657 558.283,127.341 C558.255,132.027 557.298,136.77 555.044,140.938 C553.908,143.005 552.446,144.938 550.543,146.413 M515.914,101.145 C515.914,95.536 512.984,91.142 509.245,91.142 C508.509,91.142 507.803,91.318 507.147,91.636 C506.153,91.676 505.178,92.06 504.399,92.646 C503.524,93.31 502.834,94.166 502.318,95.091 C501.269,96.955 500.868,99.067 500.83,101.145 C500.87,103.223 501.273,105.334 502.322,107.195 C502.843,108.118 503.527,108.976 504.403,109.638 C505.178,110.224 506.146,110.605 507.137,110.648 C507.797,110.969 508.504,111.147 509.245,111.147 C512.984,111.147 515.914,106.754 515.914,101.145 M559.892,89.997 L559.892,116.72 C557.271,109.894 552.207,105.256 546.399,105.256 C545.294,105.256 544.222,105.431 543.184,105.749 C540.937,105.853 538.739,106.687 536.914,107.982 C534.899,109.404 533.264,111.306 532.028,113.403 C529.541,117.623 528.495,122.517 528.436,127.341 C528.495,132.167 529.544,137.059 532.032,141.279 C533.271,143.373 534.904,145.275 536.917,146.696 C538.737,147.991 540.927,148.822 543.168,148.93 C544.212,149.25 545.291,149.427 546.399,149.427 C552.207,149.427 557.271,144.789 559.892,137.964 L559.892,232.511 L529.709,190.566 C530.405,190.95 531.158,191.168 531.95,191.168 C535.512,191.168 538.301,186.967 538.301,181.602 C538.301,177.15 536.376,173.507 533.688,172.394 C532.993,171.766 532.083,171.293 531.068,171.226 C530,171.175 528.936,171.584 528.107,172.215 C527.275,172.852 526.621,173.668 526.129,174.553 C525.132,176.33 524.755,178.34 524.716,180.319 C524.748,181.802 524.968,183.303 525.498,184.71 L484.775,128.118 L481.997,87.107 L559.892,89.997 z M538.125,108.745 C537.984,108.846 537.832,108.929 537.695,109.037 C535.925,110.411 534.54,112.243 533.454,114.22 C531.3,118.206 530.368,122.8 530.338,127.341 C530.367,131.884 531.296,136.479 533.451,140.467 C534.533,142.446 535.923,144.275 537.693,145.653 C537.84,145.768 538.006,145.859 538.157,145.968 C533.863,142.047 530.999,135.172 530.999,127.341 C530.999,119.532 533.845,112.672 538.125,108.745 M531.89,189.259 L531.95,189.262 C534.315,189.262 536.318,185.877 536.387,181.821 C536.259,183.172 535.957,184.515 535.392,185.772 C534.996,186.624 534.512,187.466 533.796,188.148 C533.278,188.644 532.623,189.048 531.89,189.259 M396.303,152.74 C400.557,160.76 405.369,169.724 410.362,178.913 C411.037,176.078 411.726,173.243 412.433,170.414 C414.422,162.613 416.516,154.835 418.876,147.11 L396.303,152.74 z M470.93,134.13 C470.937,136.169 470.916,138.209 470.886,140.243 C470.687,147.41 470.167,154.565 469.352,161.69 C468.606,168.825 467.439,175.908 466.173,182.974 C464.824,190.024 463.195,197.023 461.373,203.976 C459.439,210.896 457.367,217.789 454.886,224.545 C452.496,230.904 449.939,237.209 446.969,243.325 C451.112,249.949 454.08,254.12 455.198,254.535 C459.991,254.52 537.484,241.32 549.334,239.298 L472.811,133.661 L470.93,134.13 z M455.856,202.488 C457.736,195.684 459.379,188.809 460.87,181.896 C462.427,174.997 463.678,168.034 464.938,161.062 C466.119,154.081 467.236,147.076 468.086,140.034 C468.31,138.25 468.528,136.465 468.73,134.679 L455.756,137.915 C454.851,144.078 453.71,151.232 452.284,159.585 C448.164,183.702 443.049,209.51 438.784,229.703 C440.639,232.878 442.396,235.84 444.027,238.535 C446.09,233.33 448.05,228.089 449.792,222.765 C452.045,216.083 454.062,209.317 455.856,202.488 M418.369,171.596 C417.523,177.258 416.604,182.906 415.621,188.542 C417.364,191.722 419.113,194.897 420.853,198.041 L423.728,145.9 L421.474,146.464 C420.683,154.89 419.579,163.253 418.369,171.596 M438.985,190.1 C436.966,200.645 434.969,210.63 433.074,219.81 C431.361,216.807 429.596,213.691 427.8,210.497 L431.467,143.971 L447.758,139.91 C445.81,152.774 442.967,169.309 438.985,190.1" fill="#F1AA49"/>
    <path d="M504.403,109.638 C505.178,110.224 506.148,110.605 507.136,110.648 C507.256,110.654 507.375,110.674 507.498,110.667 C508.611,110.6 509.617,110.072 510.363,109.367 C510.609,109.141 510.819,108.89 511.02,108.633 C511.438,108.088 511.777,107.49 512.063,106.884 C512.886,105.076 513.206,103.096 513.212,101.145 C513.173,103.094 512.791,105.073 511.827,106.764 C511.272,107.773 510.44,108.684 509.482,109.221 C508.858,109.571 508.188,109.766 507.498,109.72 C505.751,109.579 504.476,108.072 503.779,106.453 C503.038,104.814 502.74,102.966 502.733,101.145 C502.741,99.322 503.042,97.476 503.781,95.84 C504.483,94.221 505.752,92.717 507.498,92.573 C508.183,92.527 508.854,92.722 509.474,93.067 C510.434,93.604 511.267,94.514 511.826,95.527 C512.789,97.215 513.173,99.195 513.212,101.145 C513.206,99.194 512.887,97.215 512.064,95.405 C511.78,94.8 511.445,94.205 511.026,93.661 C510.824,93.401 510.613,93.148 510.365,92.918 C509.618,92.215 508.613,91.687 507.498,91.617 C507.38,91.61 507.264,91.63 507.146,91.636 C506.153,91.676 505.178,92.06 504.399,92.646 C503.523,93.31 502.833,94.166 502.316,95.092 C501.269,96.955 500.867,99.067 500.83,101.145 C500.868,103.223 501.272,105.334 502.322,107.197 C502.843,108.118 503.527,108.976 504.403,109.638 M526.132,186.082 C526.254,186.295 526.416,186.491 526.554,186.697 C526.987,187.335 527.482,187.935 528.112,188.416 C528.94,189.047 530.002,189.457 531.068,189.405 C531.35,189.387 531.625,189.332 531.89,189.259 C532.623,189.048 533.28,188.644 533.797,188.148 C534.511,187.466 534.998,186.624 535.392,185.772 C535.957,184.515 536.259,183.172 536.39,181.821 C536.437,181.319 536.463,180.818 536.464,180.319 C536.458,180.695 536.427,181.07 536.391,181.447 C536.25,182.92 535.881,184.376 535.156,185.653 C534.291,187.235 532.715,188.575 531.068,188.458 C530.419,188.402 529.846,188.141 529.347,187.754 C528.579,187.164 527.985,186.275 527.592,185.343 C526.902,183.791 526.626,182.041 526.622,180.319 C526.626,178.593 526.908,176.845 527.597,175.294 C528.066,174.188 528.814,173.141 529.808,172.585 L529.991,172.487 C530.132,172.418 530.28,172.359 530.432,172.312 L530.478,172.294 C530.669,172.238 530.865,172.2 531.068,172.184 C532.713,172.065 534.288,173.402 535.153,174.984 C536.067,176.585 536.428,178.468 536.464,180.319 C536.458,178.465 536.166,176.585 535.392,174.863 C535,174.011 534.515,173.167 533.798,172.486 L533.688,172.394 C532.994,171.766 532.083,171.293 531.068,171.226 C530.001,171.175 528.935,171.584 528.108,172.215 C527.275,172.852 526.621,173.668 526.129,174.553 C525.131,176.33 524.755,178.34 524.718,180.319 C524.748,181.802 524.966,183.303 525.498,184.71 C525.674,185.179 525.883,185.637 526.132,186.082 M536.915,146.696 C538.738,147.991 540.929,148.822 543.169,148.93 C543.392,148.94 543.613,148.951 543.835,148.949 C546.125,148.878 548.307,148.024 550.116,146.726 C550.257,146.623 550.406,146.523 550.542,146.413 C552.445,144.938 553.908,143.005 555.044,140.938 C557.298,136.77 558.254,132.027 558.285,127.341 C558.225,132.024 557.201,136.768 554.814,140.807 C553.628,142.815 552.07,144.614 550.19,145.935 C549.266,146.588 548.25,147.105 547.195,147.461 C546.109,147.828 544.972,148.021 543.835,148 C541.778,147.93 539.823,147.154 538.158,145.968 C538.006,145.859 537.839,145.768 537.693,145.653 C535.924,144.275 534.533,142.446 533.452,140.467 C531.294,136.479 530.365,131.884 530.339,127.341 C530.367,122.8 531.3,118.206 533.455,114.22 C534.541,112.243 535.927,110.411 537.695,109.037 C537.832,108.929 537.984,108.846 538.124,108.745 C539.794,107.547 541.764,106.76 543.835,106.687 C544.968,106.667 546.1,106.859 547.184,107.221 C548.243,107.578 549.26,108.098 550.187,108.751 C552.069,110.072 553.625,111.872 554.813,113.877 C557.199,117.916 558.225,122.66 558.285,127.341 C558.253,122.657 557.301,117.914 555.046,113.745 C553.91,111.678 552.447,109.743 550.543,108.268 C550.411,108.163 550.267,108.064 550.129,107.964 C548.321,106.66 546.131,105.802 543.835,105.73 C543.619,105.727 543.402,105.738 543.183,105.749 C540.937,105.853 538.741,106.687 536.914,107.982 C534.899,109.406 533.264,111.306 532.028,113.403 C529.542,117.623 528.495,122.517 528.436,127.341 C528.495,132.167 529.545,137.059 532.031,141.279 C533.272,143.373 534.901,145.275 536.915,146.696 M264.043,256.509 C261.983,259.15 260.064,261.904 258.274,264.745 L261.533,267.575 C265.976,258.877 271.493,250.692 278.214,243.372 C280.313,242.622 282.446,241.956 284.609,241.355 L279.87,237.495 L259.157,220.617 L235.46,244.92 L247.292,255.203 L251.16,258.563 C258.496,252.65 266.742,247.835 275.654,244.345 C271.414,247.986 267.536,252.096 264.043,256.509 M245.842,292.151 L257.729,275.758 C257.874,275.415 258.001,275.07 258.148,274.729 L254.384,271.459 C253.252,273.59 252.186,275.752 251.201,277.955 C249.084,282.554 247.319,287.31 245.842,292.151 M357.982,406.122 L357.588,405.572 C349.16,406.642 340.837,406.293 332.715,404.852 L330.096,409.313 C334.502,409.747 338.951,409.788 343.345,409.404 C348.368,408.909 353.324,407.868 357.982,406.122 M295.221,392.029 C293.863,391.424 292.504,390.809 291.147,390.19 L287.427,395.791 C289.106,396.586 290.776,397.391 292.475,398.153 C299.669,401.368 307.125,404.27 314.837,406.377 L307.022,397.055 C303.067,395.477 299.139,393.781 295.221,392.029 M251.214,374.927 C251.184,374.816 251.152,374.706 251.123,374.593 C251.038,374.272 250.974,373.944 250.895,373.62 L246.752,377.997 C247.546,380.289 248.417,382.559 249.388,384.788 L259.461,396.056 C256.539,390.807 254.297,385.206 252.518,379.454 C252.993,379.619 253.47,379.779 253.94,379.963 C256.534,380.974 259.126,382.002 261.675,383.201 C267.952,386.122 274.188,389.311 280.505,392.444 L284.134,386.973 C277.457,383.909 270.695,380.882 263.626,378.361 C259.615,376.949 255.484,375.667 251.214,374.927 M323.725,405.115 L324.899,403.114 C323.645,402.776 322.394,402.418 321.149,402.043 L323.725,405.115 z M317.657,348.715 L313.904,355.584 C317.644,355.424 321.385,355.198 325.12,354.894 L321.646,348.508 C320.316,348.582 318.988,348.653 317.657,348.715 M264.265,348.403 C258.437,348.046 252.605,347.617 246.79,347.018 C246.404,341.23 246.327,335.422 246.533,329.627 L240.073,324.485 C240.027,325.178 239.958,325.872 239.922,326.566 C239.59,333.129 239.676,339.726 240.21,346.286 C233.823,345.527 227.463,344.556 221.133,343.146 L221.117,343.171 C227.328,345.891 233.891,347.742 240.491,349.33 C241.199,356.174 242.41,362.965 244.186,369.621 L248.956,364.581 C248.12,360.007 247.479,355.394 247.061,350.758 C251.333,351.615 255.625,352.363 259.937,352.977 L264.265,348.403 z M356.178,345.028 C347.498,346.334 338.77,347.277 330.018,347.947 L333.369,354.101 C341.346,353.2 349.287,351.928 357.134,350.179 C359.762,349.6 362.381,348.951 364.994,348.27 L362.06,344.062 C360.103,344.401 358.141,344.725 356.178,345.028 M273.752,354.587 L271.673,351.664 L269.331,354.141 C270.803,354.301 272.277,354.451 273.752,354.587 M305.082,355.835 L308.793,349.042 C298.925,349.336 289.042,349.328 279.158,349.039 L283.642,355.351 C290.778,355.77 297.928,355.928 305.082,355.835 M397.206,335.921 L397.017,335.375 C388.214,338.363 379.28,340.673 370.267,342.507 L372.75,346.067 C381.218,343.445 389.454,340.135 397.206,335.921 M221.549,298.064 L222.158,298.757 C227.151,285.313 235.175,273.341 245.379,263.635 L241.564,260.322 L229.512,249.85 L207.106,281.647 L218.422,294.51 L221.112,297.57 L221.549,298.064 z M287.476,308.94 L289.858,305.075 L287.301,302.476 C282.769,305.46 278.114,308.247 273.276,310.651 C266.537,313.955 259.479,316.724 252.153,317.904 C250.54,318.158 248.915,318.309 247.29,318.378 C247.808,313.24 248.535,308.125 249.524,303.06 C249.831,301.653 250.112,300.235 250.42,298.823 L241.57,311.032 C241.34,312.495 241.121,313.961 240.935,315.429 L247.089,320.331 L249.051,321.892 C250.25,321.862 251.445,321.792 252.632,321.678 C260.605,320.872 268.221,318.366 275.401,315.164 C279.542,313.302 283.558,311.202 287.476,308.94 M364.507,261.926 C360.573,262.243 356.703,263.055 352.884,264.029 C352.642,264.093 352.401,264.17 352.158,264.237 L338.987,275.446 C340.636,274.56 342.297,273.7 343.967,272.862 C347.321,271.131 350.767,269.599 354.258,268.169 C357.75,266.739 361.318,265.489 364.962,264.463 C365.702,264.266 366.444,264.081 367.188,263.898 L366.115,261.821 C365.58,261.854 365.042,261.874 364.507,261.926 M329.039,273.901 L329.053,273.905 L329.11,273.845 L329.699,273.343 C329.472,273.462 329.249,273.589 329.024,273.708 L329.039,273.901 M323.11,277.046 C318.963,279.516 314.923,282.152 311,284.937 C307.834,287.218 304.738,289.582 301.71,292.029 C299.058,294.117 296.396,296.134 293.675,298.09 L294.991,299.425 L323.258,277.152 L323.11,277.046 M285.135,420.994 L291.665,427.63 L302.228,438.371 L311.522,424.2 C310.852,424.213 310.186,424.251 309.512,424.251 C301.079,424.251 292.911,423.105 285.135,420.994 M236.506,388.853 L224.094,409.596 C224.665,409.951 225.154,410.451 225.48,411.094 C225.72,411.57 225.849,412.069 225.881,412.568 L243.029,438.113 L264.414,413.03 L263.568,412.082 C253.12,406.132 243.935,398.224 236.506,388.853 M387.159,386.467 L386.059,384.093 C383.439,387.866 380.545,391.433 377.412,394.773 L387.159,386.467 z M215.514,302.746 L202.376,287.811 L189.874,312.819 L213.442,341.102 L216.5,336.131 C216.412,334.463 216.36,332.788 216.36,331.099 C216.36,322.853 217.449,314.859 219.47,307.24 L215.514,302.746 z M393.472,381.961 L393.898,382.878 L419.06,375.214 L401.294,346.909 C399.488,357.435 395.916,367.362 390.88,376.372 L393.472,381.961 z M359.744,247.773 L334.33,218.846 L316.902,233.218 L311.122,237.988 C327.592,238.27 343.031,242.843 356.373,250.643 L359.744,247.773 z M403.983,332.201 L407.628,328.397 L418.469,317.089 L419.395,282.127 L396.286,297.289 C400.051,306.918 402.252,317.318 402.59,328.183 L403.983,332.201 z M337.478,419.955 L346.698,429.556 L360.658,409.882 L360.177,409.206 C353.196,413.75 345.582,417.399 337.478,419.955 M231.644,382.138 C231.008,381.172 230.396,380.19 229.796,379.198 C231.021,378.609 232.263,378.127 233.52,377.748 L232.958,376.997 C231.829,377.64 230.762,378.37 229.796,379.195 C226.49,373.74 223.726,367.92 221.586,361.809 L215.724,353.983 L214.418,355.592 L195.133,379.327 L218.413,404.249 L231.644,382.138 z M321.89,169.513 C316.693,162.832 311.519,156.133 306.394,149.395 C306.279,149.395 306.16,149.395 306.042,149.395 L334.048,203.849 L338.556,190.668 L331.244,181.446 C328.094,177.493 324.973,173.518 321.89,169.513 M262.527,59.245 C262.131,59.516 261.665,59.799 261.05,60.054 C260.792,60.151 260.532,60.24 260.231,60.313 L271.857,82.918 L274.744,60.183 C274.124,60.193 273.48,60.12 272.921,59.931 C271.531,59.439 270.708,58.717 270.077,58.104 C269.447,57.478 268.971,56.887 268.532,56.312 C268.085,55.717 267.695,55.132 267.333,54.552 C267.227,54.668 267.122,54.78 267.014,54.903 C266.237,55.73 265.424,56.68 264.411,57.684 C263.884,58.181 263.317,58.701 262.527,59.245 M371.237,254.815 L371.114,254.891 L374.895,262.215 L375.097,262.604 L377.786,267.817 C383.947,274.459 389.155,281.993 393.186,290.209 L397.419,287.431 L416.21,275.103 L405.348,237.543 C405.131,238.425 404.923,239.308 404.704,240.188 C401.826,251.498 398.755,262.773 394.891,273.89 C395.583,262.14 397.072,250.551 398.75,238.999 C399.04,237.066 399.347,235.137 399.654,233.207 L371.438,254.692 L371.237,254.815 M359.821,216.852 C354.559,210.511 349.375,204.113 344.205,197.705 L339.075,212.699 L368.025,245.653 C368.397,246.078 368.656,246.582 368.809,247.116 L378.966,239.38 C372.441,231.98 366.119,224.425 359.821,216.852 M428.74,377.058 C428.593,372.204 426.342,324.769 426.052,318.619 L427.136,277.748 C427.631,276.642 428.215,274.952 428.965,272.303 C435.663,264.057 441.264,254.869 445.995,245.322 C453.053,256.415 454.316,256.424 455.082,256.424 C460.521,256.424 547.465,241.55 551.165,240.917 L552.672,240.66 L473.977,132.022 L473.598,131.502 L470.916,132.17 C470.858,128.077 470.625,123.991 470.027,119.942 C473.987,116.428 476.103,112.807 476.035,109.238 C476.02,108.345 475.849,107.478 475.563,106.633 C475.091,93.76 473.85,59.895 473.84,59.27 L473.84,58.882 L473.567,58.603 C457.686,42.362 363.458,24.953 296.794,25.886 C288.01,26.013 283.236,26.194 280.629,26.467 C268.656,26.083 256.393,25.886 243.938,25.886 C186.319,25.886 132.785,30.076 93.199,37.683 C47.424,46.479 25.174,58.678 25.174,74.978 C25.174,79.784 27.083,84.178 30.955,88.213 C31.114,88.534 31.303,88.845 31.558,89.122 C76.006,137.274 161.939,233.466 170.406,254.343 L180.936,310.477 C180.012,311.287 179.498,312.526 179.667,313.835 L187.873,376.913 L187.75,377.004 C186.752,377.939 186.378,379.277 186.623,380.526 C186.603,380.631 186.571,380.731 186.561,380.84 L181.558,431.014 C181.421,432.398 182.049,433.747 183.198,434.534 C183.843,434.977 184.594,435.203 185.35,435.203 C185.938,435.203 186.528,435.066 187.071,434.791 L220.33,417.969 L239.503,446.534 C240.168,447.525 241.259,448.145 242.447,448.215 L242.667,448.221 C243.778,448.221 244.84,447.735 245.568,446.882 L270.186,418.01 C270.328,418.025 270.466,418.053 270.612,418.053 C270.701,418.053 270.792,418.051 270.886,418.043 C271.075,418.03 271.256,417.98 271.441,417.938 L300.108,447.081 C300.827,447.814 301.807,448.221 302.822,448.221 C302.948,448.221 303.073,448.215 303.198,448.204 C304.344,448.089 305.378,447.463 306.01,446.5 L321.09,423.504 C323.779,423.169 326.435,422.735 329.046,422.173 L333.105,426.404 L344.389,438.159 C345.112,438.909 346.105,439.33 347.138,439.33 C347.233,439.33 347.328,439.325 347.421,439.319 C348.555,439.235 349.591,438.652 350.247,437.723 L364.128,418.162 L389.449,438.49 C390.133,439.038 390.976,439.33 391.835,439.33 C392.124,439.33 392.413,439.297 392.698,439.231 C393.836,438.965 394.792,438.194 395.287,437.133 L405.868,414.501 C408.419,415.286 412.177,416.423 415.932,417.5 C422.855,419.485 427.229,420.738 430.006,420.738 C432.231,420.738 433.431,419.934 434.093,418.053 C434.486,416.945 434.891,415.789 428.74,377.058 M478.532,78.35 L559.961,81.289 L560.19,62.809 L559.044,63.028 C558.377,63.155 492.351,75.836 487.177,76.776 L478.532,78.35 z M561.799,88.16 L479.955,85.124 L482.892,128.518 L482.911,128.789 L561.799,238.421 L561.799,88.16 z M444.307,381.219 L456.417,442.696 L419.458,433.603 L405.409,461.24 L381.116,451.477 C381.116,451.477 352.538,467.907 316.337,467.907 C284.251,467.907 259.894,458.858 259.894,458.858 L239.809,469.814 L212.183,444.411 L171.538,462.51 L169.632,370.064 L153.438,257.378 L6.415,97.969 C-0.374,85.861 -2.477,74.471 3.557,63.674 C3.557,63.674 13.717,33.508 80.085,18.583 C113.17,11.143 160.252,4.698 223.297,2.706 C290.5,0.582 363.969,4.294 425.577,16.837 C446.575,21.112 497.655,33.508 492.576,63.357 C528.298,49.81 581.17,39.223 581.17,39.223 L583.076,253.566 L447.766,276.22 L444.307,381.219 z M288.982,235.087 L294.088,239.248 C295.5,239.011 296.922,238.811 298.356,238.639 L329.962,212.569 L297.487,149.42 C288.966,149.415 280.163,149.311 271.129,149.126 L262.91,213.842 L288.982,235.087 z M370.376,413.405 L390.436,429.511 L399.561,409.993 L390.849,393.724 L370.376,413.405 z M274.669,53.771 C274.742,53.791 274.92,53.738 275.133,53.647 C274.853,53.628 274.511,53.737 274.669,53.771 M266.188,52.659 L266.205,52.677 L266.188,52.659 M76.749,74.882 C76.437,75.451 76.094,76.045 75.587,76.717 C75.294,77.1 74.941,77.515 74.437,77.951 C74.162,78.174 73.903,78.385 73.512,78.6 C73.258,78.764 72.515,79.096 71.91,79.168 C70.671,79.332 69.846,79.033 69.251,78.793 C68.655,78.535 68.238,78.256 67.867,77.986 C67.133,77.449 66.624,76.896 66.14,76.363 C64.287,74.221 63.055,72.041 61.936,69.756 C60.856,67.468 59.929,65.128 59.335,62.62 C61.367,64.195 63.197,65.852 65.017,67.455 C66.784,69.008 68.533,70.622 70.188,71.806 C70.225,71.715 70.263,71.634 70.3,71.538 C70.683,70.611 71.066,69.494 71.523,68.286 C71.769,67.681 72.033,67.051 72.372,66.363 C72.726,65.673 73.101,64.931 73.887,64.014 C74.274,63.578 74.843,63.037 75.709,62.591 C76.547,62.12 77.89,61.9 78.932,62.1 C79.186,62.148 79.438,62.209 79.685,62.282 C79.916,62.355 80.094,62.438 80.297,62.527 C80.725,62.712 80.985,62.895 81.277,63.09 C81.807,63.455 82.281,63.927 82.413,64.051 C83.21,64.876 84.033,65.658 84.773,66.319 C85.137,66.65 85.493,66.941 85.761,67.133 L85.966,67.282 L86.173,67.065 L86.426,66.785 L86.554,66.644 L86.606,66.602 C86.685,66.553 86.776,66.434 86.865,66.289 C87.042,65.992 87.211,65.566 87.359,65.097 C87.641,64.147 87.826,63.021 87.963,61.873 C88.244,59.553 88.341,57.101 88.517,54.559 C89.908,56.714 90.914,59.047 91.628,61.56 C91.961,62.828 92.233,64.138 92.266,65.605 C92.287,66.34 92.25,67.115 92.054,67.975 C91.954,68.405 91.823,68.855 91.604,69.333 L91.319,69.933 C91.248,70.09 91.157,70.249 91.071,70.41 C90.705,71.053 90.301,71.754 89.506,72.54 C89.109,72.927 88.581,73.328 87.897,73.633 C87.217,73.941 86.398,74.106 85.668,74.101 C85.421,74.097 85.205,74.067 84.983,74.042 C88.084,79.678 92.37,87.489 97.418,96.694 C97.58,96.723 97.738,96.753 97.901,96.782 C118.042,100.43 141.845,103.232 167.977,105.101 C167.263,100.357 166.546,95.646 165.837,91.008 L144.765,62.515 C144.125,62.345 143.648,62.084 143.284,61.859 C142.74,61.501 142.378,61.156 142.058,60.828 C141.427,60.171 141.022,59.539 140.634,58.931 C139.176,56.502 138.337,54.144 137.626,51.702 C137.167,50.035 136.794,48.352 136.548,46.635 C121.881,48.292 108.285,50.305 96.075,52.651 C50.416,61.425 40.416,71.743 40.416,74.978 C40.416,75.085 41.788,85.206 87.686,94.795 C83.11,86.455 79.329,79.57 76.749,74.882 M258.948,52.886 L259.137,52.666 C259.792,51.906 260.505,50.966 261.323,49.963 C261.745,49.466 262.194,48.95 262.732,48.405 C263.286,47.861 263.875,47.274 264.908,46.651 C265.413,46.359 266.125,46.025 267.083,45.874 C268.03,45.689 269.372,45.902 270.299,46.42 C270.525,46.544 270.746,46.683 270.957,46.83 C271.153,46.972 271.296,47.105 271.46,47.255 C271.808,47.565 271.997,47.819 272.215,48.098 C272.603,48.611 272.905,49.207 272.988,49.366 C273.489,50.4 274.024,51.4 274.518,52.262 C274.758,52.691 275.004,53.078 275.199,53.345 L275.347,53.551 C275.434,53.508 275.521,53.462 275.612,53.412 L275.941,53.224 L276.106,53.128 L276.17,53.107 C276.257,53.084 276.381,53.001 276.513,52.891 C276.774,52.666 277.069,52.312 277.356,51.914 C277.922,51.102 278.451,50.09 278.945,49.043 C279.938,46.929 280.801,44.632 281.769,42.275 C282.413,44.757 282.633,47.287 282.523,49.899 C282.438,51.207 282.285,52.536 281.855,53.938 C281.739,54.328 281.59,54.726 281.415,55.13 C282.308,55.937 282.808,57.152 282.647,58.439 L278.016,94.897 L284.372,107.253 C314.808,106.307 343.02,104.172 367.307,100.982 C364.697,89.849 362.267,78.666 360.359,67.333 L360.162,67.08 C359.635,66.339 359.323,65.653 359.033,64.995 C357.945,62.378 357.463,59.922 357.119,57.402 C356.812,54.891 356.669,52.376 356.896,49.81 C358.328,51.943 359.544,54.09 360.767,56.185 C361.915,58.148 363.032,60.15 364.188,61.768 C364.056,59.451 363.75,53.679 363.644,48.145 C331.301,43.859 292.772,41.434 251.796,41.159 C253.113,43.158 254.261,45.166 255.407,47.128 C256.595,49.161 257.749,51.242 258.948,52.886 M393.721,96.794 C411.855,93.345 424.154,89.588 432.361,86.135 C424.215,80.571 405.023,74.124 388.144,69.223 L377.788,99.499 C383.347,98.658 388.671,97.756 393.721,96.794 M259.87,53.947 C259.98,54.046 260.084,54.103 260.07,54.053 C260.056,54.029 259.971,53.922 259.736,53.813 L259.87,53.947 M152.535,53.848 L152.554,53.864 L152.535,53.848 M161.085,53.703 C161.161,53.712 161.328,53.633 161.528,53.512 C161.248,53.533 160.926,53.691 161.085,53.703 M144.743,54.425 C145.152,54.265 145.576,54.166 146.004,54.152 C146.413,53.462 146.84,52.714 147.326,51.896 C147.67,51.344 148.039,50.766 148.491,50.148 C148.958,49.528 149.454,48.862 150.386,48.093 C150.842,47.729 151.497,47.296 152.425,47.004 C153.331,46.683 154.691,46.697 155.684,47.073 C155.925,47.164 156.164,47.267 156.393,47.38 C156.61,47.494 156.771,47.605 156.954,47.727 C157.345,47.983 157.57,48.208 157.824,48.451 C158.286,48.901 158.67,49.446 158.779,49.592 C159.423,50.541 160.1,51.45 160.714,52.231 C161.017,52.62 161.317,52.967 161.547,53.203 L161.724,53.384 L161.967,53.207 L162.264,52.974 L162.415,52.855 L162.472,52.825 C162.557,52.789 162.667,52.688 162.781,52.56 C163.007,52.298 163.247,51.907 163.473,51.47 C163.912,50.583 164.289,49.505 164.621,48.398 C165.051,46.966 165.421,45.453 165.79,43.912 C156.259,44.627 147.047,45.474 138.214,46.451 C139.193,47.625 140.128,48.804 141.057,49.962 C142.304,51.514 143.531,53.094 144.743,54.425 M168.219,52.812 C168.114,53.541 167.944,54.298 167.605,55.111 C167.553,55.231 167.488,55.355 167.432,55.479 C167.877,55.999 168.2,56.636 168.315,57.362 C169.234,63.159 170.98,74.241 173.095,88.006 L186.59,106.255 C206.096,107.281 226.641,107.814 247.751,107.814 C254.823,107.814 261.818,107.753 268.718,107.633 L270.159,96.282 L251.346,59.701 C250.383,57.83 251.12,55.532 252.993,54.569 L253.149,54.509 C252.431,52.416 252.039,50.4 251.756,48.346 C251.467,45.966 251.334,43.583 251.512,41.156 C248.994,41.14 246.473,41.128 243.938,41.128 C217.115,41.128 191.234,42.046 167.303,43.798 C167.777,45.389 168.106,47.024 168.287,48.719 C168.395,50.024 168.438,51.362 168.219,52.812 M363.629,69.472 C362.4,69.237 361.71,68.693 361.22,68.28 C361.063,68.139 360.95,68.008 360.823,67.874 C364.559,76.967 367.937,86.165 371.132,95.412 L380.083,69.239 C379.469,69.245 378.834,69.174 378.281,68.988 C376.892,68.496 376.068,67.772 375.435,67.16 C374.808,66.534 374.33,65.944 373.894,65.369 L373.818,65.261 C373.092,65.069 372.381,64.885 371.689,64.706 C371.109,65.345 370.5,66.02 369.773,66.74 C369.246,67.238 368.676,67.755 367.889,68.301 C367.491,68.572 367.025,68.854 366.41,69.111 C366.078,69.236 365.766,69.356 365.328,69.436 C365.035,69.511 364.223,69.593 363.629,69.472 M210.028,348.909 L188.564,323.154 L194.415,368.123 L210.028,348.909 z M95.187,111.78 C77.617,108.601 63.512,105.006 52.685,100.915 C78.111,128.852 128.339,184.747 156.983,221.365 C141.494,193.05 116.033,146.52 97.19,112.135 C96.523,112.016 95.848,111.9 95.187,111.78 M423.835,143.911 L424.105,139.045 C423.415,139.205 422.727,139.365 422.027,139.522 C421.91,141.168 421.795,142.815 421.652,144.456 L423.835,143.911 z M195.054,282.422 L180.34,265.969 L187.008,301.509 L196.137,283.253 C195.74,283.044 195.368,282.774 195.054,282.422 M189.832,424.855 L215.232,412.009 L193.438,388.675 L189.832,424.855 z M236.726,232.706 L255.243,213.714 L255.439,212.16 L206.915,146.552 C204.211,146.395 201.522,146.246 198.787,146.076 C193.718,145.762 187.792,145.162 181.467,144.32 C183.263,156.928 184.959,169.314 186.353,180.325 L236.726,232.706 z M363.823,116.781 C342.293,119.411 318.029,121.255 292.077,122.235 L293.781,125.551 C316.524,124.624 339.997,122.803 362.84,119.654 L363.823,116.781 z M397.384,389.786 L406.447,406.706 C413.677,408.959 421.643,411.268 426.299,412.403 C425.504,406.177 423.703,394.098 421.856,382.331 L397.384,389.786 z M426.002,104.634 C417.643,107.249 407.844,109.624 396.57,111.768 C390.598,112.904 384.268,113.962 377.621,114.936 C377.872,115.715 378.11,116.498 378.357,117.278 C394.896,114.502 410.919,110.953 425.9,106.469 L426.002,104.634 z M445.586,96.7 C442.168,98.547 438.237,100.306 433.782,101.974 L433.667,104.035 C438.932,102.297 444.042,100.43 448.985,98.43 L445.586,96.7 z M227.506,240.152 C227.921,240.406 228.264,240.732 228.544,241.098 L231.409,238.16 L231.347,238.106 L187.879,192.907 C189.146,203.919 189.921,212.58 189.908,217.199 L227.506,240.152 z M274.048,126.146 C277.79,126.071 281.566,125.973 285.367,125.853 L283.653,122.522 C280.614,122.614 277.556,122.695 274.477,122.764 L274.048,126.146 z M175.555,104.147 C175.63,104.639 175.706,105.135 175.778,105.631 C176.083,105.649 176.39,105.665 176.694,105.686 L175.555,104.147 z M173.582,143.18 C164.102,141.697 154.174,139.753 145.158,137.485 L177.473,171.09 C176.305,162.401 174.985,152.967 173.582,143.18 M434.651,248.735 C432.847,256.777 431.46,262.682 430.357,267.058 C434.92,259.153 438.896,250.967 442.405,242.584 C442.656,241.972 442.897,241.358 443.141,240.746 C441.687,238.372 440.045,235.638 438.194,232.488 C436.907,238.537 435.707,244.029 434.651,248.735 M418.851,327.703 L407.294,339.757 L406.572,340.512 L406.379,340.674 L407.1,341.824 L420.505,363.184 C420.055,353.283 419.421,339.771 418.851,327.703 M431.577,141.979 L448.066,137.869 C448.391,135.668 448.692,133.582 448.962,131.608 C443.854,133.582 438.119,135.436 431.844,137.121 L431.577,141.979 z M427.604,214.052 L425.329,255.316 C427.347,246.663 429.807,235.51 432.487,222.648 C430.965,219.994 429.345,217.14 427.604,214.052 M469.811,120.128 C466.66,122.875 462.378,125.554 457.114,128.093 C456.807,130.476 456.455,133.07 456.052,135.877 L468.937,132.664 C469.376,128.504 469.705,124.328 469.811,120.128 M411.293,141.669 C403.761,143.022 395.562,144.192 386.759,145.19 C390.416,157.974 393.833,170.825 396.977,183.752 C399.245,193.22 401.406,202.718 403.276,212.3 C403.764,209.713 404.264,207.126 404.78,204.544 C406.305,196.904 407.958,189.29 409.724,181.697 C400.853,165.39 394.145,152.738 394.049,152.557 L393.478,151.482 L419.514,144.987 C420.07,143.216 420.668,141.453 421.259,139.689 C418.042,140.392 414.72,141.055 411.293,141.669 M379.044,239.319 L401.466,222.247 C401.79,220.398 402.129,218.552 402.466,216.706 C398.397,206.364 394.735,195.904 391.216,185.405 C386.909,172.408 382.887,159.328 379.122,146.175 L379.074,146 C373.4,146.557 367.516,147.054 361.383,147.474 L345.976,192.525 C351.43,199.987 356.873,207.462 362.225,215.006 C367.916,223.048 373.582,231.105 379.044,239.319 M415.086,191.514 C414.217,196.371 413.31,201.219 412.35,206.053 C411.256,211.556 410.095,217.046 408.876,222.522 C408.941,222.673 409.025,222.816 409.07,222.976 L417.812,253.21 L420.657,201.617 C418.771,198.219 416.906,194.832 415.086,191.514 M371.323,118.41 L371.576,118.369 C371.542,118.238 371.507,118.103 371.472,117.968 L371.323,118.41 z M163.341,74.816 C162.549,69.724 161.776,64.8 161.033,60.106 C160.77,60.096 160.506,60.095 160.262,60.051 C158.814,59.771 157.895,59.175 157.179,58.663 C156.466,58.136 155.907,57.621 155.39,57.117 C154.862,56.595 154.389,56.073 153.944,55.553 C153.858,55.682 153.771,55.809 153.68,55.946 C153.061,56.843 152.412,57.86 151.606,58.95 L163.341,74.816 z M77.012,69.327 L76.992,69.315 L77.012,69.327 M71.397,72.524 C71.535,72.583 71.649,72.605 71.621,72.562 C71.601,72.543 71.485,72.469 71.228,72.438 L71.397,72.524 M352.561,149.717 C352.471,149.15 352.346,148.593 352.224,148.038 C340.089,148.714 327.145,149.143 313.437,149.322 C317.743,154.91 322.023,160.515 326.287,166.139 C329.358,170.152 332.394,174.192 335.4,178.255 L340.467,185.075 L352.561,149.717 z M85.391,67.705 C85.465,67.701 85.619,67.595 85.794,67.441 C85.52,67.51 85.23,67.721 85.391,67.705 M235.217,149.199 C236.631,154.311 238.381,159.439 240.064,164.618 C242.531,172.243 245.153,179.967 246.979,187.903 L256.831,201.223 L263.106,151.807 C262.761,150.835 262.403,149.87 262.009,148.919 C253.2,148.684 244.149,148.364 234.892,147.968 C235.005,148.377 235.098,148.789 235.217,149.199 M179.146,183.826 L130.428,133.163 C120.443,129.685 113.532,125.775 112.96,121.76 C112.57,119.034 112.393,116.634 112.336,114.561 C110.453,114.289 108.586,114.01 106.751,113.724 C132.493,160.709 168.356,226.273 175.969,240.191 L182.326,218.213 C182.857,215.534 181.51,202.328 179.146,183.826 M250.87,123.968 C251.95,124.686 252.898,125.503 253.798,126.341 C257.926,126.341 262.115,126.317 266.351,126.266 L266.776,122.905 C261.021,122.995 255.207,123.045 249.338,123.052 C249.866,123.342 250.383,123.643 250.87,123.968 M139.533,117.919 L140.755,120.74 C141.758,120.85 144.117,121.101 147.609,121.434 C151.135,120.404 154.809,119.757 158.564,119.668 C152.059,119.144 145.708,118.561 139.533,117.919 M200.525,125.093 C209.6,125.513 219.427,125.863 229.822,126.085 L229.983,125.968 C230.552,125.557 231.15,125.131 231.778,124.713 C232.667,124.115 233.646,123.518 234.699,122.986 C222.304,122.856 210.132,122.544 198.279,122.058 L200.525,125.093 z M178.082,121.038 C178.221,121.98 178.36,122.928 178.5,123.875 C182.334,124.123 186.401,124.367 190.681,124.599 L188.471,121.61 C184.976,121.435 181.512,121.245 178.082,121.038 M170.283,120.539 C168.709,120.431 167.144,120.321 165.583,120.207 C166.791,120.436 167.995,120.741 169.186,121.15 C169.609,121.296 170.027,121.479 170.447,121.655 C170.392,121.283 170.337,120.911 170.283,120.539 M228.237,151.328 C227.847,150.107 227.469,148.872 227.116,147.62 C223.709,147.458 220.26,147.28 216.798,147.097 L239.653,177.998 C237.858,174.302 236.082,170.595 234.395,166.816 C232.134,161.795 230.029,156.677 228.237,151.328 M200.733,277.343 L179.735,253.855 C179.971,253.519 180.157,253.137 180.279,252.72 L188.26,225.122 L222.77,246.189 L200.776,277.4 L200.733,277.343" fill="#0B0B09"/>
    <path d="M515.915,101.144 C515.915,106.754 512.986,111.147 509.246,111.147 C508.505,111.147 507.797,110.969 507.137,110.648 C507.257,110.654 507.375,110.676 507.496,110.667 C508.611,110.599 509.618,110.072 510.365,109.367 C510.608,109.141 510.82,108.892 511.02,108.633 C512.752,107.41 514.01,104.474 514.01,101.144 C514.01,97.819 512.756,94.889 511.026,93.663 C510.825,93.401 510.613,93.148 510.366,92.918 C509.62,92.215 508.613,91.686 507.496,91.616 C507.378,91.61 507.263,91.63 507.147,91.636 C507.804,91.318 508.509,91.141 509.246,91.141 C512.986,91.141 515.915,95.536 515.915,101.144 M507.496,109.72 C505.751,109.579 504.476,108.072 503.779,106.451 C503.038,104.814 502.74,102.966 502.732,101.144 C502.741,99.322 503.042,97.476 503.781,95.84 C504.483,94.221 505.752,92.715 507.496,92.574 C508.181,92.527 508.854,92.721 509.474,93.067 L509.246,93.047 C506.665,93.047 504.483,96.757 504.483,101.144 C504.483,105.534 506.665,109.242 509.246,109.242 L509.482,109.222 C508.86,109.569 508.185,109.768 507.496,109.72 M535.152,174.984 C536.066,176.587 536.428,178.468 536.465,180.319 C536.459,180.695 536.427,181.071 536.391,181.446 C536.34,177.363 534.329,173.941 531.951,173.941 C529.542,173.941 527.504,177.449 527.504,181.602 C527.504,184.093 528.241,186.345 529.346,187.754 C528.579,187.164 527.985,186.275 527.592,185.343 C526.902,183.791 526.628,182.041 526.622,180.319 C526.628,178.593 526.908,176.846 527.597,175.294 C528.067,174.187 528.816,173.142 529.807,172.585 L529.991,172.488 C530.133,172.418 530.28,172.359 530.431,172.31 L530.48,172.294 C530.668,172.238 530.865,172.2 531.067,172.184 C532.713,172.065 534.287,173.402 535.152,174.984 M538.125,108.745 C539.795,107.547 541.762,106.76 543.833,106.688 C544.97,106.667 546.1,106.858 547.184,107.221 C546.922,107.199 546.664,107.161 546.399,107.161 C538.958,107.161 532.903,116.215 532.903,127.341 C532.903,138.47 538.958,147.523 546.399,147.523 C546.667,147.523 546.93,147.485 547.195,147.461 C546.109,147.828 544.974,148.021 543.833,148 C541.778,147.93 539.823,147.152 538.158,145.968 C533.863,142.045 530.999,135.172 530.999,127.341 C530.999,119.534 533.847,112.672 538.125,108.745 M427.521,117.283 C428.357,118.245 428.933,119.464 428.935,120.658 C427.636,118.645 425.585,117.948 423.559,117.593 C421.516,117.241 419.389,117.278 417.291,117.456 C413.082,117.836 408.923,118.897 404.921,120.329 C400.906,121.76 397.074,123.67 393.391,125.953 C391.56,127.114 389.782,128.384 388.009,129.741 C386.233,131.098 384.579,132.625 382.785,134.169 C383.527,131.93 384.656,129.842 385.959,127.843 C387.312,125.884 388.894,124.067 390.647,122.414 C394.197,119.168 398.41,116.588 402.977,114.955 C407.534,113.314 412.438,112.497 417.346,112.963 C419.791,113.225 422.257,113.763 424.508,114.952 C425.622,115.546 426.688,116.316 427.521,117.283 M71.622,72.562 C71.65,72.605 71.534,72.583 71.397,72.524 L71.228,72.438 C71.485,72.469 71.601,72.543 71.622,72.562 M77.012,69.327 L76.991,69.314 L77.012,69.327 M85.793,67.441 C85.617,67.595 85.466,67.701 85.39,67.705 C85.23,67.721 85.52,67.511 85.793,67.441 M66.14,76.363 C66.624,76.896 67.134,77.448 67.867,77.986 C68.238,78.256 68.655,78.534 69.251,78.793 C69.846,79.032 70.67,79.332 71.91,79.167 C72.515,79.097 73.258,78.764 73.512,78.599 C73.903,78.385 74.162,78.175 74.438,77.951 C74.941,77.514 75.294,77.099 75.586,76.717 C76.093,76.045 76.437,75.451 76.749,74.882 C79.329,79.569 83.111,86.453 87.686,94.795 C90.729,95.431 93.97,96.064 97.418,96.694 C92.37,87.487 88.084,79.678 84.984,74.042 C85.205,74.066 85.421,74.096 85.667,74.101 C86.398,74.106 87.217,73.942 87.897,73.633 C88.582,73.328 89.109,72.927 89.506,72.539 C90.302,71.754 90.705,71.053 91.071,70.41 C91.156,70.249 91.249,70.09 91.319,69.933 L91.604,69.333 C91.824,68.855 91.954,68.405 92.053,67.975 C92.249,67.115 92.286,66.34 92.266,65.604 C92.234,64.139 91.96,62.828 91.63,61.56 C90.914,59.046 89.908,56.714 88.517,54.559 C88.34,57.1 88.244,59.552 87.963,61.873 C87.826,63.021 87.641,64.146 87.359,65.096 C87.211,65.566 87.042,65.992 86.865,66.289 C86.776,66.435 86.685,66.552 86.606,66.602 L86.554,66.643 L86.427,66.785 L86.173,67.067 L85.965,67.282 L85.76,67.134 C85.493,66.941 85.137,66.65 84.773,66.319 C84.032,65.656 83.21,64.876 82.413,64.05 C82.281,63.927 81.807,63.456 81.278,63.09 C80.984,62.895 80.724,62.712 80.296,62.527 C80.093,62.437 79.916,62.356 79.685,62.282 C79.437,62.208 79.186,62.148 78.932,62.099 C77.89,61.899 76.547,62.12 75.709,62.592 C74.843,63.037 74.274,63.578 73.887,64.014 C73.101,64.931 72.726,65.672 72.372,66.363 C72.033,67.05 71.769,67.68 71.523,68.286 C71.065,69.495 70.683,70.611 70.3,71.537 C70.262,71.634 70.225,71.715 70.188,71.806 C68.533,70.622 66.784,69.008 65.017,67.454 C63.198,65.852 61.367,64.195 59.336,62.62 C59.929,65.127 60.856,67.47 61.936,69.756 C63.056,72.041 64.286,74.221 66.14,76.363 M361.222,68.281 C361.71,68.693 362.4,69.237 363.629,69.472 C364.223,69.593 365.034,69.512 365.327,69.436 C365.767,69.356 366.078,69.237 366.409,69.11 C367.025,68.855 367.492,68.572 367.889,68.3 C368.676,67.757 369.246,67.238 369.773,66.74 C370.499,66.02 371.109,65.346 371.69,64.706 C372.383,64.885 373.09,65.068 373.82,65.26 L373.892,65.368 C374.332,65.944 374.807,66.534 375.435,67.161 C376.068,67.771 376.892,68.496 378.281,68.988 C378.833,69.175 379.468,69.245 380.083,69.239 L371.131,95.412 C367.937,86.164 364.562,76.967 360.825,67.875 C360.949,68.008 361.063,68.14 361.222,68.281 M356.896,49.81 C356.669,52.377 356.811,54.891 357.119,57.402 C357.463,59.922 357.946,62.378 359.033,64.995 C359.326,65.653 359.633,66.339 360.162,67.08 L360.36,67.333 C362.268,78.666 364.696,89.849 367.307,100.982 C369.155,100.739 370.971,100.489 372.773,100.234 C374.465,99.993 376.138,99.75 377.79,99.499 L388.142,69.222 C405.023,74.124 424.215,80.571 432.36,86.135 C433.041,85.848 433.691,85.563 434.314,85.283 C420.316,74.858 372.735,62.96 366.071,61.328 C365.822,56.925 365.644,52.38 365.564,48.403 C364.925,48.317 364.285,48.23 363.645,48.145 C363.75,53.679 364.054,59.452 364.188,61.768 C363.032,60.149 361.916,58.148 360.768,56.186 C359.544,54.089 358.328,51.943 356.896,49.81 M153.68,55.946 C153.77,55.809 153.857,55.683 153.944,55.554 C154.389,56.073 154.86,56.595 155.39,57.117 C155.907,57.62 156.466,58.135 157.179,58.663 C157.895,59.175 158.814,59.77 160.261,60.052 C160.506,60.096 160.77,60.096 161.033,60.106 C161.776,64.801 162.549,69.724 163.341,74.816 L151.606,58.95 C152.412,57.86 153.061,56.842 153.68,55.946 M152.554,53.864 L152.536,53.848 L152.554,53.864 M161.528,53.512 C161.328,53.633 161.161,53.711 161.085,53.702 C160.925,53.691 161.248,53.532 161.528,53.512 M140.635,58.93 C141.022,59.539 141.427,60.17 142.058,60.828 C142.378,61.155 142.74,61.5 143.285,61.859 C143.647,62.084 144.125,62.345 144.765,62.515 L165.84,91.008 C166.546,95.645 167.263,100.357 167.978,105.102 C170.558,105.286 173.155,105.464 175.778,105.631 C175.704,105.135 175.63,104.639 175.555,104.147 L176.694,105.685 C179.96,105.889 183.262,106.078 186.593,106.253 L173.095,88.005 C170.98,74.241 169.235,63.159 168.316,57.361 C168.2,56.636 167.877,55.998 167.432,55.479 C167.488,55.355 167.553,55.232 167.605,55.111 C167.944,54.298 168.114,53.54 168.219,52.812 C168.438,51.362 168.395,50.025 168.287,48.719 C168.106,47.024 167.777,45.389 167.304,43.797 C166.796,43.835 166.294,43.875 165.788,43.912 C165.421,45.453 165.051,46.966 164.621,48.398 C164.287,49.506 163.912,50.582 163.473,51.47 C163.247,51.907 163.007,52.298 162.781,52.559 C162.667,52.688 162.557,52.788 162.472,52.824 L162.415,52.855 L162.264,52.974 L161.967,53.207 L161.724,53.385 L161.547,53.203 C161.317,52.966 161.016,52.62 160.714,52.231 C160.101,51.45 159.423,50.541 158.779,49.592 C158.67,49.447 158.284,48.9 157.827,48.45 C157.571,48.208 157.345,47.984 156.955,47.727 C156.771,47.605 156.61,47.493 156.393,47.381 C156.164,47.266 155.925,47.164 155.684,47.072 C154.693,46.697 153.331,46.683 152.425,47.004 C151.496,47.296 150.842,47.73 150.386,48.093 C149.454,48.862 148.958,49.528 148.491,50.147 C148.039,50.766 147.67,51.342 147.326,51.895 C146.84,52.714 146.412,53.462 146.003,54.152 C145.575,54.167 145.152,54.265 144.744,54.426 C143.532,53.094 142.304,51.514 141.057,49.961 C140.128,48.804 139.193,47.625 138.215,46.451 C137.66,46.512 137.101,46.572 136.547,46.635 C136.794,48.353 137.167,50.034 137.626,51.701 C138.338,54.144 139.176,56.503 140.635,58.93 M260.069,54.052 C260.084,54.104 259.982,54.047 259.869,53.947 L259.736,53.812 C259.971,53.922 260.056,54.029 260.069,54.052 M261.05,60.053 C261.665,59.798 262.131,59.515 262.527,59.245 C263.317,58.7 263.884,58.181 264.412,57.684 C265.424,56.68 266.237,55.73 267.014,54.903 C267.122,54.779 267.227,54.668 267.333,54.552 C267.695,55.132 268.087,55.718 268.532,56.312 C268.971,56.887 269.447,57.478 270.075,58.103 C270.708,58.716 271.531,59.439 272.921,59.931 C273.48,60.12 274.125,60.193 274.744,60.183 L271.857,82.919 L260.231,60.314 C260.53,60.239 260.793,60.152 261.05,60.053 M266.205,52.678 L266.189,52.659 L266.205,52.678 M275.133,53.648 C274.92,53.739 274.742,53.791 274.667,53.771 C274.511,53.736 274.853,53.627 275.133,53.648 M251.346,59.701 L270.159,96.282 L268.718,107.633 C271.131,107.59 273.527,107.539 275.918,107.482 C278.753,107.416 281.572,107.342 284.372,107.253 L278.016,94.897 L282.647,58.439 C282.81,57.151 282.308,55.937 281.415,55.13 C281.59,54.726 281.739,54.328 281.855,53.939 C282.286,52.536 282.437,51.207 282.523,49.899 C282.633,47.289 282.413,44.757 281.77,42.275 C280.803,44.631 279.94,46.928 278.945,49.044 C278.451,50.091 277.925,51.101 277.356,51.914 C277.069,52.312 276.774,52.665 276.513,52.891 C276.381,53.001 276.258,53.084 276.169,53.107 L276.106,53.129 L275.94,53.223 L275.612,53.411 C275.521,53.462 275.434,53.507 275.347,53.551 L275.199,53.345 C275.004,53.078 274.758,52.691 274.518,52.262 C274.024,51.399 273.489,50.4 272.988,49.367 C272.905,49.207 272.603,48.611 272.215,48.097 C271.998,47.82 271.808,47.565 271.46,47.255 C271.296,47.105 271.153,46.972 270.957,46.83 C270.746,46.683 270.525,46.545 270.299,46.42 C269.372,45.902 268.03,45.689 267.083,45.874 C266.125,46.026 265.413,46.359 264.908,46.651 C263.875,47.274 263.285,47.861 262.732,48.405 C262.193,48.95 261.745,49.466 261.323,49.963 C260.508,50.966 259.792,51.905 259.137,52.666 L258.946,52.886 C257.749,51.242 256.595,49.16 255.407,47.128 C254.258,45.167 253.114,43.158 251.796,41.159 C251.701,41.157 251.607,41.157 251.512,41.156 C251.335,43.583 251.467,45.967 251.758,48.346 C252.039,50.4 252.432,52.417 253.147,54.508 L252.993,54.57 C251.12,55.532 250.383,57.83 251.346,59.701 M558.081,79.313 L495.884,77.069 C513.246,73.76 551.172,66.479 558.255,65.12 L558.081,79.313 z M560.19,62.809 L559.044,63.028 C558.376,63.156 492.351,75.835 487.177,76.776 L478.532,78.349 L559.961,81.289 L560.19,62.809 z M543.833,105.73 C546.129,105.8 548.32,106.66 550.129,107.964 C555.759,110.393 559.894,118.151 559.894,127.341 C559.894,136.541 555.752,144.305 550.116,146.726 C548.309,148.024 546.125,148.878 543.833,148.949 C543.613,148.951 543.392,148.94 543.169,148.93 C544.212,149.25 545.292,149.428 546.399,149.428 C552.207,149.428 557.271,144.789 559.894,137.964 L559.894,232.512 L529.711,190.567 C530.407,190.95 531.158,191.169 531.951,191.169 C535.512,191.169 538.301,186.966 538.301,181.602 C538.301,177.147 536.377,173.507 533.688,172.394 L533.798,172.486 C534.514,173.167 535,174.009 535.392,174.864 C536.166,176.587 536.459,178.465 536.465,180.319 C536.464,180.818 536.437,181.319 536.39,181.82 C536.319,185.877 534.316,189.264 531.951,189.264 L531.89,189.259 C531.625,189.334 531.351,189.388 531.067,189.405 C530.002,189.457 528.937,189.046 528.112,188.415 C527.482,187.935 526.986,187.335 526.554,186.697 C526.415,186.49 526.254,186.295 526.131,186.08 C525.884,185.637 525.674,185.179 525.497,184.71 L484.775,128.118 L481.999,87.106 L559.894,89.997 L559.894,116.72 C557.271,109.894 552.207,105.256 546.399,105.256 C545.296,105.256 544.222,105.431 543.184,105.749 C543.402,105.738 543.619,105.727 543.833,105.73 M479.955,85.125 L482.891,128.518 L482.911,128.788 L561.799,238.421 L561.799,88.16 L479.955,85.125 z M455.198,254.535 C454.08,254.12 451.112,249.951 446.969,243.325 C449.939,237.209 452.498,230.904 454.886,224.545 C457.366,217.788 459.438,210.896 461.373,203.976 C463.196,197.023 464.824,190.024 466.173,182.973 C467.439,175.908 468.607,168.826 469.353,161.69 C470.167,154.566 470.687,147.41 470.886,140.243 C470.916,138.209 470.935,136.169 470.928,134.129 L472.811,133.661 L549.334,239.298 C537.484,241.32 459.991,254.521 455.198,254.535 M444.025,238.536 C442.396,235.84 440.638,232.878 438.784,229.703 C443.047,209.509 448.163,183.702 452.284,159.583 C453.711,151.232 454.851,144.076 455.755,137.915 L468.73,134.679 C468.528,136.465 468.311,138.25 468.089,140.032 C467.236,147.076 466.119,154.082 464.938,161.062 C463.678,168.033 462.425,174.997 460.869,181.896 C459.378,188.809 457.737,195.684 455.856,202.488 C454.063,209.315 452.046,216.084 449.792,222.766 C448.049,228.089 446.09,233.331 444.025,238.536 M442.406,242.584 C438.897,250.967 434.92,259.153 430.357,267.059 C431.46,262.682 432.847,256.777 434.651,248.735 C435.707,244.029 436.906,238.539 438.194,232.488 C440.047,235.637 441.687,238.372 443.141,240.746 C442.897,241.359 442.655,241.971 442.406,242.584 M406.447,406.707 L397.385,389.783 L421.856,382.331 C423.703,394.096 425.507,406.175 426.299,412.403 C421.643,411.268 413.676,408.959 406.447,406.707 M390.437,429.51 L370.375,413.406 L390.848,393.724 L399.561,409.993 L390.437,429.51 z M354.76,418.198 L346.697,429.556 L329.022,411.145 L330.096,409.313 L343.721,386.106 L357.588,405.572 L357.982,406.124 L360.177,409.206 L360.659,409.882 L354.76,418.198 z M323.725,405.115 L301.633,378.771 C301.554,378.675 301.458,378.6 301.373,378.515 L319.188,345.914 C319.499,345.877 319.804,345.797 320.106,345.678 L338.633,379.718 L323.725,405.115 z M311.522,424.2 L302.228,438.37 L276.519,412.234 L287.427,395.791 L291.147,390.189 L295.578,383.51 L295.696,383.524 L295.794,383.667 L314.837,406.379 L319.538,411.98 L311.522,424.2 z M261.356,416.617 L243.029,438.113 L225.881,412.569 C225.849,412.069 225.72,411.568 225.48,411.095 C225.154,410.451 224.665,409.953 224.094,409.596 L239.03,384.636 L263.568,412.083 L264.415,413.031 L261.356,416.617 z M189.832,424.854 L193.438,388.675 L215.232,412.009 L189.832,424.854 z M180.34,265.97 L195.052,282.422 C195.369,282.776 195.739,283.044 196.135,283.252 L187.008,301.509 L180.34,265.97 z M180.279,252.72 L188.261,225.124 L222.77,246.189 L200.775,277.399 L200.733,277.343 L179.732,253.857 C179.971,253.519 180.157,253.137 180.279,252.72 M231.347,238.106 L231.409,238.16 L228.544,241.099 C228.264,240.732 227.921,240.407 227.505,240.152 L189.908,217.199 C189.921,212.581 189.146,203.919 187.879,192.907 L231.347,238.106 z M145.158,137.485 C154.173,139.752 164.102,141.698 173.582,143.18 C174.985,152.967 176.303,162.401 177.473,171.09 L145.158,137.485 z M198.787,146.074 C201.522,146.244 204.211,146.395 206.917,146.55 L255.439,212.16 L255.243,213.713 L236.726,232.706 L186.353,180.324 C184.958,169.314 183.262,156.93 181.467,144.321 C187.792,145.162 193.718,145.762 198.787,146.074 M227.116,147.619 C227.469,148.872 227.847,150.107 228.237,151.328 C230.029,156.677 232.134,161.795 234.395,166.816 C236.082,170.594 237.858,174.302 239.653,177.997 L216.798,147.099 C220.261,147.28 223.71,147.458 227.116,147.619 M233.031,134.74 C233.163,133.784 233.449,133.06 233.748,132.664 C233.821,132.558 233.907,132.478 233.982,132.39 L234.114,132.275 C234.179,132.217 234.36,132.082 234.479,131.99 C235.001,131.584 235.508,131.2 236.007,130.84 C237.825,129.534 239.556,128.63 241.237,128.292 C242.33,128.306 243.428,128.316 244.53,128.327 C245.489,128.545 246.469,128.932 247.46,129.486 C248.443,130.032 249.432,130.7 250.385,131.468 C251.347,132.235 252.186,133.051 253.041,133.968 C256.326,137.638 259.029,142.199 261.167,146.989 C252.459,146.753 243.531,146.44 234.385,146.043 C234.018,144.558 233.684,143.078 233.42,141.622 C232.972,139.166 232.761,136.665 233.031,134.74 M263.106,151.808 L256.828,201.224 L246.979,187.903 C245.153,179.967 242.531,172.243 240.062,164.618 C238.381,159.439 236.631,154.311 235.217,149.199 C235.098,148.789 235.004,148.377 234.893,147.966 C244.148,148.364 253.2,148.684 262.009,148.919 C262.403,149.869 262.761,150.835 263.106,151.808 M297.485,149.42 L329.961,212.569 L298.356,238.637 L298.037,238.903 C297.705,239.176 297.448,239.5 297.234,239.845 C296.852,239.987 296.484,240.178 296.153,240.447 L295.827,240.711 C295.738,240.625 295.663,240.53 295.564,240.449 L294.086,239.248 L262.91,213.842 L271.129,149.126 C280.164,149.31 288.966,149.415 297.485,149.42 M321.89,169.513 C324.973,173.518 328.094,177.493 331.244,181.446 L338.556,190.668 L334.046,203.848 L306.042,149.397 C306.159,149.395 306.278,149.395 306.393,149.395 C311.519,156.133 316.693,162.832 321.89,169.513 M308.54,142.464 C308.792,141.944 309.201,141.341 309.663,140.762 C310.592,139.589 311.771,138.475 313.007,137.444 C315.492,135.365 318.348,133.636 321.359,132.386 C324.374,131.13 327.571,130.409 330.756,130.32 C333.943,130.24 337.117,130.926 339.987,132.38 C342.843,133.815 345.518,135.975 347.613,138.495 C349.465,140.725 350.827,143.346 351.711,146.159 C339.303,146.847 326.039,147.271 311.981,147.437 C310.786,145.89 309.599,144.338 308.397,142.797 C308.434,142.696 308.482,142.583 308.54,142.464 M352.56,149.717 L340.468,185.073 L335.4,178.255 C332.394,174.192 329.358,170.151 326.286,166.138 C322.025,160.515 317.743,154.91 313.437,149.323 C327.144,149.143 340.088,148.714 352.224,148.038 C352.346,148.594 352.471,149.15 352.56,149.717 M379.074,146 L379.121,146.174 C382.887,159.328 386.909,172.406 391.216,185.405 C394.735,195.905 398.397,206.364 402.465,216.706 C402.129,218.552 401.79,220.397 401.468,222.245 L379.046,239.321 C373.582,231.105 367.914,223.046 362.225,215.004 C356.871,207.461 351.43,199.988 345.976,192.523 L361.383,147.474 C367.516,147.053 373.4,146.559 379.074,146 M411.293,141.669 C414.72,141.055 418.041,140.392 421.258,139.687 C420.669,141.453 420.07,143.216 419.514,144.987 L393.479,151.482 L394.049,152.557 C394.145,152.738 400.852,165.39 409.724,181.697 C407.958,189.29 406.307,196.904 404.78,204.544 C404.264,207.127 403.765,209.712 403.276,212.3 C401.406,202.72 399.243,193.22 396.977,183.752 C393.833,170.823 390.416,157.974 386.76,145.19 C395.56,144.192 403.761,143.021 411.293,141.669 M422.027,139.52 C422.727,139.365 423.415,139.205 424.105,139.046 L423.836,143.909 L421.653,144.455 C421.795,142.815 421.91,141.168 422.027,139.52 M427.8,210.497 L431.467,143.971 L447.758,139.909 C445.808,152.774 442.967,169.309 438.987,190.099 C436.966,200.645 434.971,210.63 433.075,219.81 C431.361,216.809 429.594,213.691 427.8,210.497 M427.604,214.052 C429.345,217.14 430.966,219.993 432.487,222.647 C429.808,235.51 427.348,246.663 425.33,255.315 L427.604,214.052 z M407.101,341.826 L406.377,340.674 L406.572,340.509 L407.292,339.757 L418.85,327.702 C419.42,339.769 420.053,353.282 420.506,363.185 L407.101,341.826 z M393.472,381.96 L382.983,359.335 L399.891,344.675 L401.295,346.909 L419.061,375.214 L393.896,382.879 L393.472,381.96 z M376.324,363.094 L387.161,386.467 L366.113,404.403 L349.053,380.459 L376.324,363.094 z M351.364,328.722 L371.274,357.275 L344.407,374.382 L333.369,354.101 L330.017,347.949 L326.828,342.085 L351.364,328.722 z M299.855,305.295 L327.457,283.546 L347.438,322.181 L321.577,336.264 L299.855,305.295 z M295.912,372.617 L275.179,343.44 L294.873,311.463 L314.241,339.077 L295.912,372.617 z M294.991,299.426 L293.677,298.087 L268.645,272.616 L298.106,248.679 L322.362,276.398 C322.585,276.655 322.838,276.865 323.111,277.045 L323.258,277.152 L294.991,299.426 z M269.479,338.159 L249.051,321.891 L247.089,320.33 L239.315,314.14 L264.553,279.33 L289.856,305.075 L269.479,338.159 z M235.069,320.498 L240.073,324.485 L266.015,345.142 C266.281,345.357 266.575,345.515 266.876,345.645 L240.15,373.886 L219.328,346.079 L221.117,343.171 L221.133,343.146 L235.069,320.498 z M334.33,218.845 L357.969,245.756 L359.743,247.774 L329.699,273.343 L329.11,273.845 L329.053,273.905 L329.04,273.904 L329.024,273.707 C328.982,272.877 328.687,272.053 328.096,271.38 L304.009,243.854 L334.33,218.845 z M362.723,255.247 L383.297,295.114 L354.249,318.754 L334.028,279.664 L334.048,279.649 L362.723,255.247 z M377.987,353.581 L372.75,346.067 L370.266,342.508 L358.273,325.304 L385.77,302.929 L397.206,335.92 L397.471,336.686 L377.987,353.581 z M403.983,332.202 L392.696,299.641 L392.734,299.62 L419.395,282.127 L418.469,317.089 L403.983,332.202 z M412.349,206.053 C413.312,201.219 414.217,196.371 415.086,191.514 C416.906,194.832 418.772,198.218 420.657,201.617 L417.811,253.21 L409.069,222.976 C409.025,222.816 408.942,222.673 408.876,222.523 C410.096,217.046 411.253,211.556 412.349,206.053 M421.474,146.464 L423.726,145.902 L420.852,198.041 C419.113,194.897 417.364,191.722 415.621,188.543 C416.603,182.906 417.522,177.258 418.369,171.596 C419.579,163.253 420.681,154.891 421.474,146.464 M412.435,170.414 C411.724,173.243 411.035,176.077 410.364,178.916 C405.369,169.724 400.557,160.76 396.303,152.74 L418.876,147.11 C416.517,154.837 414.421,162.615 412.435,170.414 M404.703,240.187 C404.925,239.308 405.131,238.425 405.348,237.542 L416.209,275.103 L397.419,287.433 L393.186,290.208 L390.314,292.094 L375.096,262.604 L374.895,262.214 L371.116,254.891 L371.238,254.817 L371.438,254.694 L399.654,233.207 C399.348,235.137 399.04,237.066 398.75,239.001 C397.072,250.553 395.583,262.141 394.891,273.888 C398.755,262.773 401.825,251.499 404.703,240.187 M344.205,197.705 C349.375,204.113 354.56,210.511 359.821,216.852 C366.12,224.425 372.443,231.981 378.966,239.38 L368.809,247.116 C368.655,246.581 368.397,246.079 368.022,245.652 L339.075,212.699 L344.205,197.705 z M259.159,220.617 L289.814,245.596 L262.128,268.092 L261.534,267.577 L258.274,264.743 L235.459,244.922 L259.159,220.617 z M229.513,249.848 L241.563,260.321 L254.385,271.459 L258.148,274.73 L258.347,274.904 L257.729,275.758 L232.519,310.533 L222.158,298.757 L221.549,298.064 L221.112,297.569 L207.106,281.645 L229.513,249.848 z M202.378,287.811 L227.054,315.86 C227.431,316.29 227.885,316.616 228.377,316.83 L213.442,341.102 L211.669,338.971 L189.872,312.82 L202.378,287.811 z M210.028,348.907 L194.417,368.123 L188.564,323.152 L210.028,348.907 z M218.413,404.249 L195.133,379.326 L214.418,355.593 L215.724,353.983 L232.958,376.997 L233.52,377.748 L234.043,378.448 C233.789,378.685 233.551,378.948 233.364,379.261 L218.413,404.249 z M270.165,408.027 L244.986,379.864 L246.752,377.996 L250.895,373.622 L269.329,354.139 L271.673,351.663 L273.751,354.59 L290.234,377.785 L270.165,408.027 z M448.964,131.607 C448.69,133.583 448.391,135.668 448.066,137.87 L431.577,141.981 L431.843,137.121 C438.119,135.435 443.853,133.583 448.964,131.607 M469.811,120.128 C469.705,124.328 469.375,128.502 468.937,132.664 L456.05,135.877 C456.455,133.069 456.807,130.476 457.114,128.093 C462.378,125.554 466.661,122.875 469.811,120.128 M371.47,117.968 C371.507,118.103 371.542,118.236 371.578,118.369 L371.323,118.41 L371.47,117.968 z M473.598,131.502 L470.917,132.17 C470.858,128.077 470.625,123.99 470.027,119.943 C473.987,116.429 476.101,112.807 476.036,109.239 C476.02,108.346 475.849,107.478 475.563,106.633 C475.091,93.76 473.851,59.895 473.84,59.27 L473.84,58.882 L473.569,58.603 C457.686,42.361 363.458,24.954 296.793,25.887 C288.01,26.013 283.235,26.193 280.63,26.467 C290.707,26.79 300.576,27.247 310.181,27.831 C374.667,29.062 456.665,44.831 471.947,59.678 C472.1,64.177 473.565,104.162 473.817,111.066 C473.822,111.187 473.825,111.282 473.828,111.382 C471.501,119.565 455.085,130.214 422.174,137.545 C422.193,137.265 422.222,136.989 422.238,136.708 C422.138,137.002 422.049,137.299 421.946,137.595 C418.465,138.366 414.809,139.102 410.957,139.794 C394.916,142.672 375.9,144.746 354.24,146.017 C353.937,144.469 353.526,142.936 352.936,141.454 C352.235,139.71 351.284,138.066 350.201,136.522 C349.13,134.96 347.827,133.585 346.463,132.286 C345.087,131.022 343.585,129.805 341.904,128.858 C338.571,126.908 334.686,125.817 330.802,125.691 C326.91,125.531 323.068,126.334 319.507,127.655 C315.941,128.994 312.609,130.85 309.584,133.2 C308.081,134.395 306.66,135.711 305.364,137.288 C304.719,138.082 304.101,138.932 303.562,139.991 C303.295,140.531 303.043,141.117 302.871,141.862 C302.711,142.597 302.583,143.575 303.009,144.768 L303.132,145.116 L303.403,145.477 C303.914,146.154 304.432,146.821 304.947,147.497 C292.166,147.567 278.768,147.433 264.775,147.086 C264.69,146.737 264.613,146.388 264.526,146.038 C263.85,143.295 262.869,140.632 261.74,137.999 C260.604,135.368 259.212,132.806 257.448,130.391 C256.948,129.702 256.385,129.025 255.8,128.369 C257.943,128.366 260.098,128.357 262.267,128.339 C319.178,127.897 395.968,122.363 451.217,99.567 L448.985,98.43 C444.042,100.428 438.932,102.297 433.669,104.035 L433.783,101.972 C431.344,102.886 428.753,103.774 426.002,104.634 L425.901,106.469 C410.918,110.953 394.896,114.501 378.358,117.278 C378.11,116.498 377.872,115.715 377.621,114.936 C375.43,115.257 373.193,115.567 370.933,115.87 C368.598,116.184 366.229,116.489 363.823,116.782 L362.842,119.655 C339.997,122.803 316.524,124.624 293.781,125.55 L292.077,122.236 C289.288,122.342 286.48,122.436 283.653,122.522 L285.367,125.853 C281.566,125.975 277.79,126.071 274.048,126.147 L274.478,122.764 C271.925,122.82 269.355,122.865 266.776,122.905 L266.351,126.266 C262.115,126.317 257.926,126.341 253.798,126.342 C252.898,125.503 251.95,124.686 250.872,123.967 C250.382,123.644 249.867,123.342 249.338,123.052 C248.412,122.547 247.428,122.097 246.363,121.762 C244.698,121.226 242.854,121.005 241.048,121.137 C238.7,121.295 236.576,122.037 234.699,122.986 C233.646,123.518 232.667,124.114 231.778,124.713 C231.15,125.132 230.553,125.557 229.983,125.966 L229.822,126.085 C219.427,125.861 209.6,125.514 200.525,125.093 L198.279,122.056 C194.985,121.921 191.713,121.773 188.471,121.611 L190.681,124.6 C186.401,124.366 182.334,124.123 178.5,123.875 C178.36,122.927 178.221,121.98 178.082,121.038 C175.463,120.88 172.862,120.714 170.283,120.539 C170.337,120.911 170.392,121.283 170.447,121.655 C170.027,121.479 169.609,121.296 169.186,121.15 C167.996,120.741 166.792,120.436 165.584,120.207 C164.29,119.962 162.99,119.806 161.697,119.717 C160.649,119.652 159.603,119.644 158.564,119.668 C154.81,119.757 151.135,120.404 147.609,121.434 C144.119,121.101 141.758,120.849 140.756,120.741 L139.533,117.919 C138.807,117.844 138.08,117.768 137.359,117.693 L139.444,122.509 L139.991,122.574 C140.069,122.581 141.228,122.714 143.35,122.932 C140.13,124.258 137.088,125.972 134.385,128.141 C139.112,127.287 143.597,126.435 148.096,125.941 C152.572,125.429 157.027,125.142 161.339,125.421 C165.613,125.71 169.874,126.487 173.036,128.683 C174.646,129.747 175.84,131.283 176.667,133.202 C177.53,135.129 177.763,137.427 177.888,139.829 C178.996,137.692 179.61,135.221 179.406,132.588 C179.205,130.142 178.122,127.593 176.357,125.689 C190.546,126.648 208.144,127.575 227.775,128.047 L227.737,128.093 C226.375,129.885 225.798,131.85 225.521,133.583 C224.998,137.091 225.487,140.103 226,143.01 C226.177,143.917 226.385,144.808 226.604,145.688 C217.565,145.259 208.336,144.758 198.906,144.174 C164.807,142.066 116.096,130.243 114.846,121.49 C114.488,118.984 114.324,116.777 114.262,114.84 C113.618,114.747 112.977,114.656 112.336,114.561 C112.393,116.634 112.57,119.034 112.96,121.76 C113.534,125.774 120.443,129.685 130.429,133.164 L179.146,183.826 C181.511,202.326 182.857,215.534 182.326,218.213 L175.969,240.19 C168.356,226.272 132.493,160.709 106.751,113.724 C103.483,113.214 100.301,112.683 97.19,112.135 C116.032,146.519 141.494,193.05 156.983,221.365 C128.339,184.747 78.111,128.852 52.685,100.915 C42.668,97.131 35.47,92.918 30.955,88.213 C31.113,88.534 31.303,88.845 31.558,89.122 C76.006,137.276 161.937,233.466 170.406,254.342 L180.936,310.477 C180.014,311.287 179.495,312.527 179.667,313.834 L187.873,376.912 L187.751,377.006 C186.752,377.937 186.378,379.279 186.624,380.525 C186.605,380.631 186.571,380.731 186.561,380.84 L181.558,431.013 C181.421,432.398 182.049,433.747 183.198,434.536 C183.841,434.976 184.594,435.201 185.35,435.201 C185.938,435.201 186.528,435.066 187.071,434.791 L220.33,417.97 L239.503,446.533 C240.168,447.525 241.259,448.145 242.448,448.216 L242.667,448.221 C243.778,448.221 244.84,447.733 245.568,446.881 L270.186,418.008 C270.328,418.026 270.466,418.054 270.612,418.054 C270.7,418.054 270.793,418.051 270.883,418.043 C271.076,418.031 271.257,417.98 271.441,417.938 L300.108,447.082 C300.827,447.814 301.807,448.221 302.822,448.221 C302.946,448.221 303.073,448.216 303.198,448.203 C304.344,448.089 305.378,447.463 306.01,446.5 L324.839,417.791 L329.045,422.174 L333.105,426.401 L344.389,438.159 C345.112,438.909 346.107,439.33 347.14,439.33 C347.233,439.33 347.326,439.327 347.421,439.319 C348.555,439.235 349.591,438.65 350.248,437.724 L364.128,418.162 L389.45,438.49 C390.133,439.038 390.976,439.33 391.835,439.33 C392.124,439.33 392.413,439.298 392.698,439.229 C393.835,438.965 394.792,438.192 395.287,437.133 L405.868,414.499 C408.419,415.286 412.176,416.424 415.932,417.499 C422.856,419.485 427.232,420.738 430.006,420.738 C432.232,420.738 433.432,419.934 434.093,418.053 C434.484,416.945 434.89,415.789 428.739,377.058 C428.593,372.204 426.342,324.768 426.052,318.619 L427.136,277.748 C427.632,276.641 428.213,274.952 428.963,272.303 C435.663,264.056 441.262,254.869 445.995,245.323 C453.052,256.416 454.315,256.425 455.082,256.425 C460.521,256.425 547.465,241.55 551.165,240.917 L552.673,240.659 L473.976,132.022 L473.598,131.502" fill="#FFFFFE"/>
  </g>
</svg>
